<mxfile host="Electron" modified="2024-09-04T02:39:09.575Z" agent="Mozilla/5.0 (Windows NT 10.0; Win64; x64) AppleWebKit/537.36 (KHTML, like Gecko) draw.io/22.0.2 Chrome/114.0.5735.289 Electron/25.8.4 Safari/537.36" etag="tGPr4Bs45iwK1cAJ3MKa" version="22.0.2" type="device">
  <diagram name="第 1 页" id="VrVJlA09Cyhh8VJRDjiN">
    <mxGraphModel dx="1687" dy="1040" grid="1" gridSize="10" guides="1" tooltips="1" connect="1" arrows="1" fold="1" page="1" pageScale="1" pageWidth="1169" pageHeight="827" math="0" shadow="0">
      <root>
        <mxCell id="0" />
        <mxCell id="1" parent="0" />
        <mxCell id="H9Yx70MTVcjUhHsXXlTR-80" value="" style="group" parent="1" vertex="1" connectable="0">
          <mxGeometry x="20" y="30" width="620" height="430" as="geometry" />
        </mxCell>
        <mxCell id="H9Yx70MTVcjUhHsXXlTR-78" value="" style="rounded=0;whiteSpace=wrap;html=1;strokeColor=none;fillColor=#A9C4EB;" parent="H9Yx70MTVcjUhHsXXlTR-80" vertex="1">
          <mxGeometry y="240" width="620" height="190" as="geometry" />
        </mxCell>
        <mxCell id="H9Yx70MTVcjUhHsXXlTR-73" value="" style="group;strokeColor=none;fillColor=#E5CCFF;" parent="H9Yx70MTVcjUhHsXXlTR-80" vertex="1" connectable="0">
          <mxGeometry x="150" y="270" width="450" height="140" as="geometry" />
        </mxCell>
        <mxCell id="H9Yx70MTVcjUhHsXXlTR-71" value="" style="rounded=0;whiteSpace=wrap;html=1;strokeColor=none;fillColor=#CCCCFF;" parent="H9Yx70MTVcjUhHsXXlTR-73" vertex="1">
          <mxGeometry width="450.00000000000006" height="140" as="geometry" />
        </mxCell>
        <mxCell id="H9Yx70MTVcjUhHsXXlTR-31" value="" style="group" parent="H9Yx70MTVcjUhHsXXlTR-73" vertex="1" connectable="0">
          <mxGeometry x="198.32214765100673" y="40" width="60.4026845637584" height="80" as="geometry" />
        </mxCell>
        <mxCell id="H9Yx70MTVcjUhHsXXlTR-25" value="" style="shape=image;verticalLabelPosition=bottom;labelBackgroundColor=default;verticalAlign=top;aspect=fixed;imageAspect=0;image=data:image/png,iVBORw0KGgoAAAANSUhEUgAAAHIAAACmCAMAAAAxrCt2AAAAAXNSR0IArs4c6QAAAARnQU1BAACxjwv8YQUAAABjUExURQAAAAAAAAAAAAAAAAAAAAAAAAAAAAAAAAAAAAAAAAAAAAAAAAAAAAAAAAAAAAAAAAAAAAAAAAAAAAAAAAAAAAAAAAAAAAAAAAAAAAAAAAAAAAAAAAAAAAAAAAAAAAAAAAAAAGZodN4AAAAgdFJOUwAIEBggKDA4QEhQWGBocHiAh4+Xn6evt7/Hz9ff5+/3v+H4wgAAAAlwSFlzAAAXEQAAFxEByibzPwAABVFJREFUeF7tnGu7oiwYRrWs7a4syzQ79/9/5Tw3PJoiKqLOXO97sb4MopsFyEmT8SxYHeIsJ85xtOSoWVkf758K133AJ+ZifWFVhWTOoi4TtuR5GseXnMv7jhd8weSELyFId6Uh2F+F9L7iiImJ3hCelBKtMjhfIR9OyglJp5rGEoqS7vhoQg5IN+KDOv4Z5375aDJ+KdH22tvj7MT3c0Ut573mAw0ROe/TttsbJbnlsBbc6ROHJ2HTn2BO1TBl1VIhnz6HW1hSF8o4PAFoHb2dAFXbcbcHQh3vxsF2UMyEw6NZmhTS82gAfnJwNOgBBh0gpMt+OGzIom3mowkr52An1HePHKzhb2Jiq+R6GedPauV5ossmndlzsBMa9zRZW54xHYC02okOYloSnJsTLsUaDaAxjUAc/CLmn4KYI701xpaSlzrKBBRp1Pp39MccLBGTOtVenAhJJnt3QBX3eWdRGO5OIktK6/yhKKO1BoZ+ZcAQc0wq/3qBmVV0Ix/LiWJal0uNuhMtkYPd4MJ6E4Tx9W0emACRNv5Nv5mj2lGc9qUUxuo9OYqB06e6fFQvbDit72XD6Pl0D3feluI3HCNpOOnQpsU2jSLtFE1Kbdmq065f6ozeChVB81zKxyWK02r00Ro9n2K9h64IdafNGKs3imxBeeDDCjWnxUzSZkRTxISvm8xrzsHzZZsRyb4wmT/4uEbViZrVL2ErVFYFrUaPBqBU9F9te6w6DdY+KyokV1e7EWlSkq3JVZxY4XUvMnyqfF7htRuRrTu5kNylz4nHys6qxdgsl53txoCaqhxUcE2fM8BqvWOVgTWgXK33GGW2FpjJ+pwh1cmrPjBWoKHu8xKTSI/xwgdGTpRD14MJHxPhWzwj9RlLiZFTPO1dNMltMOG+xVrC2Gjo3FLdNl9GrGmQpjYv7vMAY79TtNY1Viw0xEfl1L+O5RuKG2LEk62xsd+Z4NRCro0o4Tw/nXNRPhztcXKJ5/cBxm4nRFfRBYKUgnXeR3FGVMEgY6fzB8k95GN7sC8KJ8j4nZpYror6bdBq7HQGOPXJuQyLX7xnyjNa9PPVG6RaLFIVOoydTl9WaKYtRigy9F2K1+g0djq9SDbX60F5Og9PstHe9SuyHmO3cxHzg8sjicOQxD/hJk457il6bpNeIzvPfKCyFC+4NMheoqGrCCWdTi+Imi9HX6n65FhiZKSioCpandSQtmckxOSnjveFhkau/g6nYBUSPQ8qxkZDZz8DjBM5BxkncQ40TuAcbBzttDCOdFoZRzktjSOc1kZr5wijpXOUkZ1Grwm+YBltb5ROo9cEX2gNNMYoHjYGKqmQ436Mcko9TmmEU+rJ8+LRxZLhytE45Uw45Uw45Uw45Uz8J5T/YPJyCxEjnFKPUxrhlHqc0gin1OOURjilnv+JcpFgl0XBQX0ROodS+UVR/RySoiZX1n79bv4cTFFzKHN87wpef01Zah5OaYlTEk5pi1MSTmmLUxJOaYtTEk5pi1MSTmmLUxJOaYtTEk5pi1MSMymvHCy4VjT3xn5vbLAcp8S21/rn/th7W35MmjUqAZswx/38jd3C9Q1lSLOMoUp419+OUozJ9tAunupHuaeqBTmq7yO5NW/+UI5KMddUr5U80M18VrciFJutx+BTo6z8DyH4rFhuzpOgmPm3apGh66gPcgESfRUZ/8Vundq9RS3ceMuiH5OxmiFbkOjnGodhGGPzmPKfe4gd8p8kCsNtQhWiNjZLDpT3L2el3sT+/JL3wI+x21jJPU5At+1ox1uSiKKKx+NvU7E9Lou0TWMpN7g9ziaV6nl/ACSbHNz+iCE8AAAAAElFTkSuQmCC;" parent="H9Yx70MTVcjUhHsXXlTR-31" vertex="1">
          <mxGeometry x="12.916107382550377" width="34.34" height="50" as="geometry" />
        </mxCell>
        <mxCell id="H9Yx70MTVcjUhHsXXlTR-30" value="&lt;font color=&quot;#ffffff&quot;&gt;Robot Execution&lt;/font&gt;" style="text;html=1;strokeColor=none;fillColor=none;align=center;verticalAlign=middle;whiteSpace=wrap;rounded=0;" parent="H9Yx70MTVcjUhHsXXlTR-31" vertex="1">
          <mxGeometry y="50" width="60.4026845637584" height="30" as="geometry" />
        </mxCell>
        <mxCell id="H9Yx70MTVcjUhHsXXlTR-60" value="" style="group" parent="H9Yx70MTVcjUhHsXXlTR-73" vertex="1" connectable="0">
          <mxGeometry x="17.114093959731544" y="40" width="70.46979865771813" height="80" as="geometry" />
        </mxCell>
        <mxCell id="H9Yx70MTVcjUhHsXXlTR-58" value="" style="shape=image;verticalLabelPosition=bottom;labelBackgroundColor=default;verticalAlign=top;aspect=fixed;imageAspect=0;image=data:image/png,iVBORw0KGgoAAAANSUhEUgAAAKYAAACLCAMAAADcZBKtAAAAAXNSR0IArs4c6QAAAARnQU1BAACxjwv8YQUAAABjUExURQAAAAAAAAAAAAAAAAAAAAAAAAAAAAAAAAAAAAAAAAAAAAAAAAAAAAAAAAAAAAAAAAAAAAAAAAAAAAAAAAAAAAAAAAAAAAAAAAAAAAAAAAAAAAAAAAAAAAAAAAAAAAAAAAAAAGZodN4AAAAgdFJOUwAIEBggKDA4QEhQWGBocHiAh4+Xn6evt7/Hz9ff5+/3v+H4wgAAAAlwSFlzAAAXEQAAFxEByibzPwAABcBJREFUeF7tmumWsjoQRRuVFmfakc+R93/KeyoUMkgGQgLctdx/OtAix2yGSuBnPESHZM3N0RIdHikIeXGUcEYQ85rxUWQEN145MoqMj0O0wp8RWq9kxHLwGp/1ekbiNDLrTRnBqKxLMoLxWJdnJMZhXZ0RjMC6NiMY2rpJRmJI66YZwWDWW2QEw1hvl5Ho33r7jKBn61YZQZ/WbTMSfVlfHp/WGUEv1jtmBP6td89I+LXuJiPwaN1ZRuDLusuMhA/rrjMC59Y9ZARurfvJSLizXmS87+e8zhmOrJcz/vI6l7iw7jsj0dV6HxlBJ+s9ZQT21vvLSNhZ7zcjsLDee0bQ1voQGYk21hcDZQQtrB+ziP1nBC2s34fKSJhbxydfw2QE5tYdVQB2mFt3UQHY08p6pwqgE+Ryxm01g1qfwOWO22qGtX5J03/cBGEcr2VjhEGtryvWz1hCmku8/Lz4jMj6VcTM+HeKF+XDdkTWY45YkBx20ST753ish1iIV3Eibo0Fz+RvEwUjsn5L0yP9DaLNPslLIoZmU8dj/Rlw++dnGu2OSZaRGZH1BbdzwkV8fp9bI7P+wRyH7KjO9ZL1GjjXr9zsH631N+YVgAcMrQO6wptVAD5oZb1UAfTM17pTvtZd0qv1RXxIwDFeSZ1JCFER9WI92JzxO3NepxWvNyCM0X3Yhhc9Wg+2+SPrN3ezd0k5IzjzGuDJesQhb8kpjk8J7/iqfT5TZEzP65JmP9a3YkfX7bvGCnfZ7je83EglIw8jGC/WxZTetfa1SzFMOMj6RJGRwMaurVPK15YXSuxEBl6ooMkI/pxbx3GUPhqfwEU0lPn43fqMYI7/OrW+xDZ3yUYhnVlLXhAYZSQcWw+Q5CUdnszxhc8pLwC62RhkBI6t77HPSn9VIT97bhMoMQwyArfWZ9jgxO1GzujsUneujTISTq3DTTnFJ7/4HaXuDMwyAqV1/Pg21unILDttAEeFfHcKlNYrdZ+eBT6uGd7T7qxealBZr9Z9WtBV2skSdPgfN1uhtF6p9rUkBhEOljMADq2j77V1Jb6xqCTb4Mw6XY60xx3dpmzOIXfWKaa260leq2txjjPrRjGNurwRV9YpgfZpZ4QP2c1J6qwn3NQRIIH2FLI+NvXWlfe/ErgmanseI5AnN9uitI6YyjFMCfT8gZtScP+1nTkl69z8gMYMZtbDGL354AUpKOFt56EVN1oaM5hYf9fh0qMngw5N65cKYL3ZVpZSZ700VlCXm8L5nZvtgfVGWxvs93lVWy8yvk4o99UvYFC92TDqNERinc7y11x1rpczrgJRcCpvWvjJD7vLkaDROpWPr4W4wjdar2UkaMJD0Vuw1qEzm60vEE+cEY1X+IaMIMBK/DIJdKTfO3Rmk3UaraZiGu3TenNGIsRWL8n7vJSy47tDH9Z/aY4ic12zLs9I0Gj02XjLFFcNxejYhLr1kFLm12FU5bn1IuPz+JmRWNCWx48h4wRle8txagM16zP0bnG3oOsSWS9nlHfLL2372FWCBlsK/2oxZyyhYl2kLG7zUyxtzDISU/EU+blfctIZv8P46HZcCsrWJ7SfcjFSetSuy0hM8h90o0cE3E73poWWipJ1kfKStTPIOmGSkai+QSA4WY0sPnlbD2gnl8rpMaWLk2lGgG+4/OVdKpAWim3JrQe4mqfX2km8SswzAsRErlkUCyLYcRYzt04vUl2Np6CayWK+qS12I7NOZfC9Y0qvMYV1mkeVTUqb4zMmWSfjj+7npM+YZB08HVyEvcaE9c4lTIbXmGRdXiy2wWvMn5ujlJ5jznaO7mh+YzrjG9Ml35gu+cZ0yTemS/63MW24dR/Wq6nFpNGVDbbPEkypxaS5Mit4e1/UD8Z5NsRsBQ3KeHNf1GPaQI/juOmLb0yXfGO65BvTJd+YLkHMS9QRemDHX+cLxHQCf50vTrybjti9V2VO/uJ7N9LDf9YFN54Epgc6AAAAAElFTkSuQmCC;" parent="H9Yx70MTVcjUhHsXXlTR-60" vertex="1">
          <mxGeometry x="5.184563758389239" width="59.71" height="50" as="geometry" />
        </mxCell>
        <mxCell id="H9Yx70MTVcjUhHsXXlTR-59" value="&lt;font color=&quot;#ffffff&quot;&gt;Visual Perception&lt;/font&gt;" style="text;html=1;strokeColor=none;fillColor=none;align=center;verticalAlign=middle;whiteSpace=wrap;rounded=0;" parent="H9Yx70MTVcjUhHsXXlTR-60" vertex="1">
          <mxGeometry y="50" width="70.46979865771813" height="30" as="geometry" />
        </mxCell>
        <mxCell id="H9Yx70MTVcjUhHsXXlTR-63" value="" style="group" parent="H9Yx70MTVcjUhHsXXlTR-73" vertex="1" connectable="0">
          <mxGeometry x="369.4630872483222" y="40" width="60.4026845637584" height="80" as="geometry" />
        </mxCell>
        <mxCell id="H9Yx70MTVcjUhHsXXlTR-61" value="" style="shape=image;verticalLabelPosition=bottom;labelBackgroundColor=default;verticalAlign=top;aspect=fixed;imageAspect=0;image=data:image/png,iVBORw0KGgoAAAANSUhEUgAAAKYAAACOCAMAAACMqYMeAAAAAXNSR0IArs4c6QAAAARnQU1BAACxjwv8YQUAAABjUExURQAAAAAAAAAAAAAAAAAAAAAAAAAAAAAAAAAAAAAAAAAAAAAAAAAAAAAAAAAAAAAAAAAAAAAAAAAAAAAAAAAAAAAAAAAAAAAAAAAAAAAAAAAAAAAAAAAAAAAAAAAAAAAAAAAAAGZodN4AAAAgdFJOUwAIEBggKDA4QEhQWGBocHiAh4+Xn6evt7/Hz9ff5+/3v+H4wgAAAAlwSFlzAAAXEQAAFxEByibzPwAADKZJREFUeF7NXGlD6joULIsICFIFr6Bl+f+/8s2cpG2a5qRJRXnz4V4oXSYnc7YELO6O6eFIHMqyXD3bY/9DvN5cVMf3cjmxHz0Mz7uDfdXgYAm6OL2t7Kd/j/n23wUUpvZtDdCsyj2m/Wwo1jiWC3vGH2L++mUf79sJNI/2ZbHclMdvex5QvT3ZD/4E023N8Xb79N3EpWnw/CpmF3y/zu3R38b8vX7o+fDS944+TWLRUj2u7bHfxPOHfdqXorUwTWL9cTWXVht75LewsbN92szskR50mlDL5tNcX21/MUitK/OQf0t7IIQYTWC2MxHg/PpLRBdHuf91H3eCAZrAxoz2/GLf3xPTd3PvUp1ti2GamBajnePd49Or+Gm1GZ6pFJqIqCch+uYnhx/hWWL0dWffRpFGsyheRKP3nPkdb3j7HJpug1SaxfRN4tPnnQw6k/lJHnYyzaJ4kvB0jsWNZKxFlYfkMWfQLIqVzHxp343HBE9FJs6ob7NoFjMx6ClNTyoW4ju7nEicRxPCp0IvP8rzz5zwS15Jm0vTmuLVvhuBFQdaZcbgbJrFZE+eowW64dWn3HiRT9P2T712JQ2lXJtdIIyhWbxw3v6NKUZkJpLyThejaBZLesGISI+n3a5j/G8czeKJZdNXLk/a8jpqNWAkzWIm9sybd9Fl7kUIYMvlC2q0artcZq8hcPputw/7Lgni40Ayz+myPBxtp9Pg9FGuk/tIw/J2e7fvE7DC6ZcFS9cknqu3th/u4Xu/ThEcWVbyyGSvfYZZrstimsSzaRdrXHvrHbfPwWpaWM6LOf0ose18opZZtg3zXOwbRufj227pJKzZcuuseFwP0YxrWeKGePY1KTlPeG+TuQZ4rkwPh4k9bBQNzl7ea0F861ZqWJr8fEkRNK+p/S3Gs27Zv8uBu87qpZxK6XkdlsZ7T0MaQdrCacfmtClNG+K5MvN52Scts81L2/OGLNphWRRvePtmX6uYQxxV65pSI/V5zv/x8O38mp41NmZcp17K8FgWBaU00HdM2Pe05xiWPZ6lHM5dCVobKXvtSo+lWOocL+e5ZtBaXFjKQqbL80lauMuIOnYlU392DdpnifHgWDTfMq5/N4yE5cb3ow3j1W2fWyQIJtJROIYIsTRHI1Geseja+IRl2fX3iawbnkavT9sWzTILszQ89GnnskFT6zcsXZ4ziS2DjhjDhvc9yzgVlsiD+OCffd3DDDc42dcuy5bnguL6afv/xJuxlFVZGh/RHoP5vNbprsOy5ikrCz9fTJnI4t5rhGUxRRL+ctzWwRKX1WWUx1KGYDCysepia2+msTRnBGPJBAa7WN32WHLkgp+vowikRYuwLAqHTQdsQi1/neXWHvgxVtRPrASmFwU+n0ANZ6MGnaV78IdgyRa9Hx4aCEoM/caYf2BLgo9B8a2CcadvTmjB5J9f12UNGuYSWflBeXP1nZ3XSFceZHlhvNzbA3cDvbkKRx1igY99Zwf1L/4fZslAp2aF8WBpGQlw4GS9pQaZU3k9lrzTheHDKULvB5Z2+mI5nd3l0uigx5LLCpdnpqBRKyBD4EpHpPPBc2WKa0xBD9ILs1xwyu/sPjXipSU/dc3DPmmhsaQgRq0KpYAmUKedsdx1XGjkS2Mpgrj7rl0NJ6sEgEE4H87AZ6uxpOV/VGDGwU5WvT2dqF1cQDq/rkMsuQABHevDvQMwk3qljjK+XaNDD1ZpLBmD4xtsy8PpdjyMjgSUvlqDoJ9oMtETTiRclqyXyJLa6QQFH2YbAtiHTb47DvVNEKBqzjluXBuJhgNclnR9WXJqkqgCs6EpCG6VsYAYaJVpJdWckESd/kybH2RpYkAEjPyXj/LApB86kVX/kDlDNUYNmPBiXk0oS4VlnUQ10E9l52hKq/bNTlcdbEtCNUYNdj5mmHylsPQCVw9Ubt3AN5WgCxyMNNw1YM5v+9IHbWiGwO5cYcmTYmmSxqynNKRitfHqgpdqymjEibG480KW9fP4OpaAYOw2jSLGeSsqbGP7Fu5jggpEc6JGnDjHGbGwrI2LETTrCyF8urdHZPK2S5iwY2GiAS7VtEVJ0lIUcBubOY0NS44yOmewVutgEE/X1xeQTFoxTS5KW0TdkQ/104ykm9hxddwBMIw2QyEjdB0Btk6tWRDPNB+AF7JKwsw0d/fKD3wUDZrMsm3ZgLM7tqNjqGHbA1oZrVZE5OVH0F8tKb9Iwhjjz4GmWmbwSbfUmeDq5JoFHqFFeGjpjP/goFZ/PksuysY9AIJpVEGNuzWKH+eiYO5WxMlJwQjAzQTJHku+jzdqbsuPWXEXffhRXDEdwPTK+jBT/kLGIU1TkOXQg1i1GJ4slNyowMZ5KJk7gAK1zV/wWMvMUhXCyvE2ea9eWoPZ8nbcLrcsX1wlUgI5a4yQiJYv4eo7yotRfhlkOdxdyJcfDC6uuNKSeQurwBAQ1/acNgxD1sf6LAfqdmIOQoIvt99mLktI5i1ofUUjkM+nSctBllRXQuswkY2+qvPNL2ohJZm3mOAeik2g+iO5HoIsS7pY2orMxI8lycm8BcaqhC/M95eYNMhSEq09kokn3CAtmbeADzoUXCAJV7bDCLBkFcLwPwIIoe0uWCK8HOYAOj9bmgGWjAGVOZSJnGTewKt6HfB2rB4wdvklkgFZViWAAWihLApu5Z2zlxkhvrNl4IGhhNLVMWqFiy1+/io944qO+9PMTOY1BmjCpJW1rv1mzsm+wQDGTDqfN2KlZmDS3UDQeI8AaXaECzGdDFUCIeguxKqDNOuVzi5LEwiyAZfMSuY1wEOJDuBxobHt4D2Wkpfty3Sw5Rvxpc/B8A6axlF8lrL8kxtXmMwjWz0RwBOU8CDFERK7+GWPpbhebi7h/kxmMjdg6aHkdCmOwJWOEmaZUMh1MMddPu3rPLDOUeKDzDeDscpSk4uGMcncgBlRURjK4oP5PMiygtPmhRaGjq67zpa7dRLvSPQDjZ1YextkOZdCLwNcO+wk86n56sV3ZDu6Bp6olX4oM19Eu0SfZWwigvCTuXzPRjDcb+BUpY7jbhAmxNwrwLKY4v8Mt+UGpGt96QIthja52YYrj6KSYCz5mlWIpYwgo25kp+44q3xd9e2pmL2wORiYd6YSZeIwR0yGvHuYJV+m10h+MqcETD7i5A+IPLKoBn5cY8Xt3FUmhyUz3zVZnF4yn8KGtVNQ5PHlJF2avC9rku4SqMtSlkBTC1xScZM5JdWEIoSAaGjjhocmCwyXHtjZBuiwFN0mznovmWOS2moVb6KzjonV1g2bdQbUJjUXj6Xoy3kbAWJs11Xx5DZtwrRX+zIEjlFbcAIFs0WAJ9ih+Czl2/Kue6lgZ9FN5pBUG4WYQyLDpUC0OUf+NRJvxBlkmVYa95M5ElCbVviISHmHq9U+wUoTJsc9aLIwy6QITxpehEWSbuWIlj/SVlF+WinNO9vxww8hziDLAz4bCHkEk7nXWcDz2/jUzFwQeLLal7SKZC17lZ999llKnBk0Jz3NT9vuejfNpad198weHP9m1ILiQyzFUBFDCGZw1L7JkVjsN/WmeFZkT4MnasbkEJrIbUQYZCnmNFsIKrhM2HdUblhe+Qj5FZDeBrDiV42JeWrzIIOewlLMGV9R5ZSGDM7tu9vVLlHYYwEwSGjGZFhrb82wprHsZcEeFiflOVIaCSK/1uTtVWOSmDMPHdJdlmJOfbiCF8U/nljL2alXIHtxankD5744I+SOWGNNj6WMd1y7iLBXlmX0F2LUm148eUmUhXxteZ+lUa4eT34ERm+9uOklUerYmD7M8pe+JSfRoJtkXYBVN1VzYsVgQZYIGZn7J4kAj8g8BbIC0x3+C7Nc8d+hrmsEmL0iuYPG9IxDc641lmbYSRVdDii9yHeBacxe5wGVnFSWpk2MtzPZYIMc+zU0SsF+IOQEMGEEWUINDNUDSTMPQz8jCFcksuWssjShI/al/1wwrkfDHCuFQHhhiNdZDuo9Gxu95yW0bwfRnK5jeSwnXB25q7dvXJv0gOLv6pQZLejsrTeHWGb/zYDx4Bq+YmwwaZLNg1n6U+uCcrCF4YNZiv+ovQ0/FOd7NEtGdr0oo6mp20ezlGUzvSIR4crmxmNZkkAsWEmzjlDwWJbMJPFf0k+ZGx7Mkv30UHnLv0LxWJYM7MNVDnNi62QPYElhRvOTAUvLWr8PYMkiNKVTEHmalvUBLJli0vou2c+hOh/AsvnTJwmg3RFdH8BS2ofkZoabSWf5k3l/y1L+ikhGsUhvI/6Wpfy1jqzKm1tvf81SxNb+gZYkMCz9MUuKLfeRk4/b8a9ZovQJthVFUfwHyz7NNomqd9QAAAAASUVORK5CYII=;" parent="H9Yx70MTVcjUhHsXXlTR-63" vertex="1">
          <mxGeometry width="58.45" height="50" as="geometry" />
        </mxCell>
        <mxCell id="H9Yx70MTVcjUhHsXXlTR-62" value="&lt;font color=&quot;#ffffff&quot;&gt;Motion Control&lt;/font&gt;" style="text;html=1;strokeColor=none;fillColor=none;align=center;verticalAlign=middle;whiteSpace=wrap;rounded=0;" parent="H9Yx70MTVcjUhHsXXlTR-63" vertex="1">
          <mxGeometry y="50" width="60.4026845637584" height="30" as="geometry" />
        </mxCell>
        <mxCell id="H9Yx70MTVcjUhHsXXlTR-66" value="" style="endArrow=classic;html=1;rounded=0;" parent="H9Yx70MTVcjUhHsXXlTR-73" edge="1">
          <mxGeometry width="50" height="50" relative="1" as="geometry">
            <mxPoint x="188.255033557047" y="80" as="sourcePoint" />
            <mxPoint x="97.65100671140941" y="80" as="targetPoint" />
          </mxGeometry>
        </mxCell>
        <mxCell id="H9Yx70MTVcjUhHsXXlTR-67" value="" style="endArrow=classic;html=1;rounded=0;" parent="H9Yx70MTVcjUhHsXXlTR-73" edge="1">
          <mxGeometry width="50" height="50" relative="1" as="geometry">
            <mxPoint x="268.79194630872485" y="80" as="sourcePoint" />
            <mxPoint x="359.3959731543625" y="80" as="targetPoint" />
          </mxGeometry>
        </mxCell>
        <mxCell id="H9Yx70MTVcjUhHsXXlTR-68" value="&lt;font color=&quot;#ffffff&quot;&gt;Guidance&lt;/font&gt;" style="text;html=1;strokeColor=none;fillColor=none;align=center;verticalAlign=middle;whiteSpace=wrap;rounded=0;" parent="H9Yx70MTVcjUhHsXXlTR-73" vertex="1">
          <mxGeometry x="117.78523489932887" y="50" width="60.4026845637584" height="30" as="geometry" />
        </mxCell>
        <mxCell id="H9Yx70MTVcjUhHsXXlTR-69" value="&lt;font color=&quot;#ffffff&quot;&gt;Execution&lt;/font&gt;" style="text;html=1;strokeColor=none;fillColor=none;align=center;verticalAlign=middle;whiteSpace=wrap;rounded=0;" parent="H9Yx70MTVcjUhHsXXlTR-73" vertex="1">
          <mxGeometry x="278.8590604026846" y="50" width="60.4026845637584" height="30" as="geometry" />
        </mxCell>
        <mxCell id="H9Yx70MTVcjUhHsXXlTR-72" value="&lt;font face=&quot;Times New Roman&quot; color=&quot;#ffffff&quot;&gt;&lt;b&gt;Robotics&lt;/b&gt;&lt;/font&gt;" style="text;html=1;strokeColor=none;fillColor=none;align=center;verticalAlign=middle;whiteSpace=wrap;rounded=0;" parent="H9Yx70MTVcjUhHsXXlTR-73" vertex="1">
          <mxGeometry width="60" height="20" as="geometry" />
        </mxCell>
        <mxCell id="H9Yx70MTVcjUhHsXXlTR-74" value="" style="rounded=0;whiteSpace=wrap;html=1;strokeColor=none;fillColor=#E1D5E7;" parent="H9Yx70MTVcjUhHsXXlTR-80" vertex="1">
          <mxGeometry x="20" y="270" width="120" height="140" as="geometry" />
        </mxCell>
        <mxCell id="H9Yx70MTVcjUhHsXXlTR-29" value="" style="group" parent="H9Yx70MTVcjUhHsXXlTR-80" vertex="1" connectable="0">
          <mxGeometry x="50" y="320" width="60.00000000000006" height="70" as="geometry" />
        </mxCell>
        <mxCell id="H9Yx70MTVcjUhHsXXlTR-24" value="" style="shape=image;verticalLabelPosition=bottom;labelBackgroundColor=default;verticalAlign=top;aspect=fixed;imageAspect=0;image=data:image/png,iVBORw0KGgoAAAANSUhEUgAAAKYAAACSCAMAAAD4vUH+AAAAAXNSR0IArs4c6QAAAARnQU1BAACxjwv8YQUAAABLUExURQAAAAAAAAAAAAAAAAAAAAAAAAAAAAAAAAAAAAAAAAAAAAAAAAAAAAAAAAAAAAAAAAAAAAAAAAAAAAAAAAAAAAAAAAAAAAAAAAAAAOZgOnQAAAAYdFJOUwAQGCAwOEBIWGBoeICHn6evv8fP19/n9zuyFroAAAAJcEhZcwAAFxEAABcRAcom8z8AAAF2SURBVHhe7dzNTsJAFEDh0WLxpwIqFN//SR3r3aC2NfRAZuL5Vk16056QmWTSBal9fS/e/j69xWXR+hQXhfvM3HVF20TmQypaaybITJKZJDNJZpLMJJlJMpNkJslMkpkkM0lmkswkmUkyk2QmyUySmSQzSWaSzCSZSTKTZCbJTJKZJDNJZpLMJJlJMpNkJslMkpkkM0lmkswkmUkyk2Qmqem6roLMgZkkM0lmkswk1ZP53BZuNWSWb1tH5nBCqkAFW8hjMclMkpkkMLPLj/mpi7vLmPmluMwmzjKnmri7zP/bQpdkJqmyzEr+XaoCaR8XRTumdQWd/fLdMyzwSYcSNqmZJDNJZpLMJJlJKiKzjTPfuOE0OClnzpxo1zF5rlVu+IOYHpEz57QxeqbfvxJ8d4jpEbsYm7Dwu0POPL7M2d7F9IhmE4MjjkTmzE8FyIvCTIyZJCSzj4+Al9MTmVexMPMxHnNpT/G+M93kdXMFh9t434iUPgD2+igisB5usAAAAABJRU5ErkJggg==;fillColor=#FFFFFF;" parent="H9Yx70MTVcjUhHsXXlTR-29" vertex="1">
          <mxGeometry x="1.5699999999999932" width="56.85" height="50" as="geometry" />
        </mxCell>
        <mxCell id="H9Yx70MTVcjUhHsXXlTR-28" value="&lt;font color=&quot;#ffffff&quot;&gt;Simulation&lt;/font&gt;" style="text;html=1;strokeColor=none;fillColor=none;align=center;verticalAlign=middle;whiteSpace=wrap;rounded=0;" parent="H9Yx70MTVcjUhHsXXlTR-29" vertex="1">
          <mxGeometry y="50" width="60" height="20" as="geometry" />
        </mxCell>
        <mxCell id="H9Yx70MTVcjUhHsXXlTR-64" value="" style="group;strokeColor=none;fillColor=#F8CECC;container=0;" parent="H9Yx70MTVcjUhHsXXlTR-80" vertex="1" connectable="0">
          <mxGeometry width="620" height="240" as="geometry" />
        </mxCell>
        <mxCell id="H9Yx70MTVcjUhHsXXlTR-75" value="&lt;font face=&quot;Times New Roman&quot; color=&quot;#ffffff&quot;&gt;&lt;b&gt;Digital Twin&lt;/b&gt;&lt;/font&gt;" style="text;html=1;strokeColor=none;fillColor=none;align=center;verticalAlign=middle;whiteSpace=wrap;rounded=0;" parent="H9Yx70MTVcjUhHsXXlTR-80" vertex="1">
          <mxGeometry x="20" y="270" width="80" height="20" as="geometry" />
        </mxCell>
        <mxCell id="H9Yx70MTVcjUhHsXXlTR-79" value="&lt;font color=&quot;#ffffff&quot; style=&quot;font-size: 14px;&quot; face=&quot;Times New Roman&quot;&gt;&lt;b&gt;Interactive Implementation&lt;/b&gt;&lt;/font&gt;" style="text;html=1;strokeColor=none;fillColor=none;align=center;verticalAlign=middle;whiteSpace=wrap;rounded=0;" parent="H9Yx70MTVcjUhHsXXlTR-80" vertex="1">
          <mxGeometry y="240" width="190" height="30" as="geometry" />
        </mxCell>
        <mxCell id="H9Yx70MTVcjUhHsXXlTR-38" value="" style="endArrow=classic;html=1;rounded=0;" parent="H9Yx70MTVcjUhHsXXlTR-80" edge="1">
          <mxGeometry width="50" height="50" relative="1" as="geometry">
            <mxPoint x="233.77049180327867" y="140" as="sourcePoint" />
            <mxPoint x="325.2459016393443" y="140" as="targetPoint" />
          </mxGeometry>
        </mxCell>
        <mxCell id="H9Yx70MTVcjUhHsXXlTR-44" value="&lt;font color=&quot;#ffffff&quot;&gt;Model&lt;br&gt;Input&lt;/font&gt;" style="text;html=1;strokeColor=none;fillColor=none;align=center;verticalAlign=middle;whiteSpace=wrap;rounded=0;container=0;" parent="H9Yx70MTVcjUhHsXXlTR-80" vertex="1">
          <mxGeometry x="243.93442622950818" y="100" width="60.98360655737705" height="40" as="geometry" />
        </mxCell>
        <mxCell id="H9Yx70MTVcjUhHsXXlTR-45" value="&lt;font color=&quot;#ffffff&quot;&gt;Model&lt;br&gt;Output&lt;/font&gt;" style="text;html=1;strokeColor=none;fillColor=none;align=center;verticalAlign=middle;whiteSpace=wrap;rounded=0;container=0;" parent="H9Yx70MTVcjUhHsXXlTR-80" vertex="1">
          <mxGeometry x="426.88524590163934" y="100" width="60.98360655737705" height="40" as="geometry" />
        </mxCell>
        <mxCell id="H9Yx70MTVcjUhHsXXlTR-52" value="" style="group;strokeColor=none;fillColor=#F19C99;container=0;" parent="H9Yx70MTVcjUhHsXXlTR-80" vertex="1" connectable="0">
          <mxGeometry x="20.327868852459005" y="30" width="203.27868852459017" height="190" as="geometry" />
        </mxCell>
        <mxCell id="H9Yx70MTVcjUhHsXXlTR-56" value="" style="endArrow=classic;html=1;rounded=0;" parent="H9Yx70MTVcjUhHsXXlTR-80" edge="1">
          <mxGeometry width="50" height="50" relative="1" as="geometry">
            <mxPoint x="416.72131147540983" y="140" as="sourcePoint" />
            <mxPoint x="508.19672131147536" y="140" as="targetPoint" />
          </mxGeometry>
        </mxCell>
        <mxCell id="H9Yx70MTVcjUhHsXXlTR-57" value="&lt;font color=&quot;#ffffff&quot; style=&quot;font-size: 14px;&quot; face=&quot;Times New Roman&quot;&gt;&lt;b style=&quot;&quot;&gt;Multimodal Design&amp;nbsp;&lt;/b&gt;&lt;/font&gt;" style="text;html=1;strokeColor=none;fillColor=none;align=center;verticalAlign=middle;whiteSpace=wrap;rounded=0;container=0;" parent="H9Yx70MTVcjUhHsXXlTR-80" vertex="1">
          <mxGeometry width="140" height="30" as="geometry" />
        </mxCell>
        <mxCell id="H9Yx70MTVcjUhHsXXlTR-20" value="" style="shape=image;verticalLabelPosition=bottom;labelBackgroundColor=default;verticalAlign=top;aspect=fixed;imageAspect=0;image=data:image/png,iVBORw0KGgoAAAANSUhEUgAAAKYAAAB6CAMAAAACqtgRAAAAAXNSR0IArs4c6QAAAARnQU1BAACxjwv8YQUAAABjUExURQAAAAAAAAAAAAAAAAAAAAAAAAAAAAAAAAAAAAAAAAAAAAAAAAAAAAAAAAAAAAAAAAAAAAAAAAAAAAAAAAAAAAAAAAAAAAAAAAAAAAAAAAAAAAAAAAAAAAAAAAAAAAAAAAAAAGZodN4AAAAgdFJOUwAIEBggKDA4QEhQWGBocHiAh4+Xn6evt7/Hz9ff5+/3v+H4wgAAAAlwSFlzAAAXEQAAFxEByibzPwAADLlJREFUeF7NXGl7sjoULLiU1g21KnUB/v+vvDMnCWQVrfp650MfRJZJzn4S+/E2FLk+EKyq7UQf/o+QLc/teaw/AN8tcFqO9Mf/B0ZlTVp7/RE48jNPzTJ95u0YbxpN6lufUZOpUG8/9cm3Yvqj6BwvbXsxU4fJvOSzvfqmPS306behOCgm1dfHnIQqkT6xxLejhRb+XF39LpSKxX7KD5X6oGAmdrLGLLcr9eFdOINC86MtfGpUlOjlPMWnQh+/Cb9te+6dzqyqtuWsKIplafFaYiRvNvcVKDhePQIYUqUP34UxBDpkHjCqjT58GyD1gz5MASNp3uyR8hOUUx+nIH51+07tzOkWBxVPvNbhfTyF5clKOBIo6PPJM5uVXTy9B1N4DxvDr7SQ0Z8fhwydGHE8h9mOjvVLn7sDO9zm4iZdzwrJJra4/nALS/BkHFAYsrgQdCceTvqrq0Acbw4rqtzvrRo37nlKYL0Hhb7RQq2/uoZPfS2uvl1JptDPYzlFgLey0tuAnKbRhwLSvmF6KGyFe0L1SBR/g7vuMgAAoc5xehM8Y7iAyTgjJc2HuZqPTExRfwgxghXdG5MwNMfp5TdNEDNzXvUZKtlkbVTwuE6UQXhnc2eFhKRgpw8VMNThBBZ3JQIPciELuygbSuzO6URAXutDBczFYAKbYyylPvZAiVqoo0PGKLta5DaAlateULjBkS5AIGUEm3or1froeyuMY8NhlhxTauI7Wt7hhpk+VIC7j7mLxdbiBREko3jeT9OINh3liblITCc9cTiCEc66FoNH/+rDHjnEVHfmckuGqfDJIigS1ZgxRSO7Kqx+vCFM6f9c8cFD1QtP8yfI1SyeeFakZJieIo5sDJ6Nrx+f8rgYTcUSE2URmG6U63DfyBoWMrWZfumK1vDEbT/qyMa+bSJTzBrOVZBMFfUxAyDLek4JXPSr8tK4Ny8P6Ey1MsMVH1Ot8UfxpMzr0s83vnA2ZhaQjhvC5XG/MTsRllOVSzW0mFw1fID93BffqNT1f3sk0UxSKIxdPwQ3ywB9ojCrqFVkkPBWHwuoMlHN7l6gX2lI1rtEE2q80G2B4/dYhiZW0D1mDIMCgujlugwDVp72a1gM60MH3eMBK0hUV5PTfG6UAjdrCfUPmgpROanB8BnPO6kjtogTV9oscZGWdjUYuLMldRk4dpZqPYrjlQMN+LGjPvSBx9g+ib69o9PBZamdi2jdIDJRjp0lsf5hfgII841YvwBaa5s1ZzeYI58lxLk93ESSyMvKdc7d40DTST6gBSma0HP7qxjNkOWDMA/0aYKLY88W8JWd3URo0gk+laXiCS0ETacYQThLFWLwFXZcZxrn0STzY9zp/BWfGDmCPr25ba8wqYs+9EBXZWsZy5iNZ+rMUe6uj65hRPOHK/PtlbTjzsN3QLzTDw5S7icy2L8gg9lKTKTobMebwSnElRPG5boqSe/a2nHbEtlusew8FmUDMG1gUSL5gRN18E20wImkwGNJPtxQNIEuNVdrxem60l39U7X3czgXdOq/2ceUc9penEtJJ6JenP4w6xvDeXuqTN04R6KTwvdWx5oOx1VyUNR+kKMVgZM3IKauoXpRwmHORhXxzzKVStQEIrsQh7gPG+PhDXSDPukcZARiXH6mTpan0NXMcDp4B/OEWBb6pTO2+qdcsQHwXZZ6iafdRSoypmSij5RPRN1lFcMOrR8jPi7WvQnMishAJ+zij1Sydt44fiSf7URPG7csJlhPymjZ84jlGXRKlquZrMm7jrgpRp1ICk2a/sxLNRXNQbKVEA36gX1+TkuKOQb1zPZ3XZbljxQ87Tmm6BhwxCtQSL7Q5xzpJVEf5rJQGpRgGK1K0KWFJKc85EZpDLZR24X1R27nZHrkxcVe6dlL0u7Li8NV00kjiptZoVRJ4RD3xQwNoRT5dK/fQuOPaUcPVuZt7c1nN51UrlQMnix2Fb6udhEXPD5sZyMOMlI2dQ/vQOL1UGjihHv+tp9Ofhmx4AGovvYp4jRtzTeg56D/6zEqFtD6b1fIlGzljg8S1dOJ7zYf2WxXXZWJC0kwFEKNQQB1J1PGZMXj0VJiH4FaU58kWIe66QQjoroCOtHIqsR13XEgvp63xJwmptj1gby6P5OX8rIOp14ZJB1yx423qHaopGMKt7WTlN89ZB9FWVWhl6I+OQKmyPvOq6k026pSA7UbOIx/bt9r3XlgmpienKuVdAeabTpFh+TcXITi6oiouv0wV6YyUR2bczeD/NoxNa5gKFaTuj2VE2k53bRqyuZOep0rw9w5+kVpdXYm7lNtf9CQLkJjbIlh1tUjzK9bQcpA/U5fCPEbcd8wLr5KZqCOUBAnajOZ1Ba/nyMNnC5doMo404l0rS6XRdHzEh/ctxzioGcIcpBssanoYhVqe6hsmxtfX+DYNF4s0BF1yRem01lCkPRCcK4OpUyAqHeye6zA1wYuQam3geNKmemZUTEgxtSfAjJDgUydrCUT7e0gMz3BuaEVdQgxKJD1M4C6qtaO3kKkRtkiQVQDbthYGUtoR+qTXdW5WZOuY7xD5SubOb4B4f49M90wqNKLmkoADz/HVZ9mZjwrrop0XSbMoTGJ8ixW4jEnrxaJFSh138HitoTPpUPRhs1DZ54sQGuMFKGpqbVWTLrQpFh6bzGtFHCy9zEjpob+cHFBgibnXh/y/fHJVIaip4KHicsMTepyP2BqfAd1eiIVb1DH41SCJryHmaa4NBUs3WBymPA2hqb0oC96Symntge1qtAW/RPRzQRNDNy4joiy9MCb9RiurLUamnRshGwpxehPyLbKcl4w8JTfyuCaTThWnE4wwOu1G7y+1HvTcAzNj/HK5AMHRwE6+ddlaM3XaOLJ2oTpaWLllAIU1+ylgD0n1lo7msC0b0v00VXvYbgs48qNr9I0tbcnTTdJswGa5m2gmUgpbZrAt+io4z5oOqekauHLQaFnuCgtdIRuS+hOT6uHRxOKtIAi2plfttmnfB6QpmnpHIw5nYDBOLUJhYuvHQKawNjdU34VaZoI0cYhYeBOUmGD6Z9mwIg04JD+ijRNZB7GvcOFhh09DSYo2r5ucO9/RZombU+LkH47VW5B5sbQ4fwSTfVn0DztyvKrCD0O3IaVVESqesKumWHoYbDKi2JVbq005k/QUUFQuTEKLsIoJ8OaW3NqsENoBuD32D+m+37D+IM0tQPTcCaD3Mwcsy8V8zW83Uymr8HsclmIZdW3Y17+qEyKcF+DmTbpPIrDtglfxHhn9uexZnMy3m5P3aWqNmVYofwF46JgR9xhgqnq6l/JZjwzku5s1zsKKmBYVL2wK7bngCmZI3X6wS7xk6rQXrNWLdiuExf2ha+lf4+ALSR9qECZdsFcurHt71I5cL2s0e/BdfIdgrwTvu4x0Lk4wY69yb7RpvvQGEtXiO071xBue4FyxhvAjyLe6urz/Wxp+Rfgtx+TtO7SWdRzQak7Gs+N6rbh5POurr9sbT2lMYX90heB8dG1Zi5DueaPqFKWC7tgBZgs3r9Z+c/AXLnLi6p4GWijZZzi00v0MA6nB6fAHtd1eaqlDC+De443TwHz4i+4SLvvEKujFGTTv9moZlDY9vV8RKZT8Qh3uilMxKbsbX8EA2cipXoOOJ3+80WqKPr0RwsjBlgEG/8OhtbI5U8DdyiES6u5YtPsdEdbYbIS+gjc+kQP9q+TZcnjSO73mJgVxt89c+h5ua7o0IEmpg2ysJEo2Z8Azlqi/VioqfOxjduW2TXzEtD5pBc6Jqsulit4SuCAuyf8dcwnQRrsiQpWYTQvDyLt32o38JMjVpzpfSMPQPZnPM/bscn2ggBKXzcUFu8Cre756Qj9tN+kfQiSXj07MWb5evOvo24DO3k3/T7rDjBTj9SOj4DpnZ/RPwxZ+XwmT7JMrD0+gpDneH+8WbdG25NboLyIZchTUqPzTURlMaetLD/5MpY+zwXfzJcNEs1lUxYv7dLOF7J0eGaSFama93x1D+R0zVlX15pNNi9lafHMmSs1C7W2D5g2go9C//al3U9lP5LKr17MsuM55cvVVq3upwynIGWb/JgOg9q2wPjIFsPLWWqeskWm20YwNx0777dWXBIgmp1RyZncx27ii1kqnsTeCknmP264UUqubJzfvogUgJezNDz9HH7MDRPuy7n46v8+R3T6X7AUnk2YTIarPptopgYP8U9YQnSr2HtA0/Wg0MFYA/Prvf8wCGrnVmGQ70N9/9cAlZCb5YL3M9PoJwEydmtveJ/r9dBbAItxsscrK6nvhLX5Q3BlJfWdoJ+SH+drsFX33KrkKfjjv3j41zAh3MKzC7KngImPg/gvX5+Oj4//ANO7nQep/zexAAAAAElFTkSuQmCC;container=0;" parent="H9Yx70MTVcjUhHsXXlTR-80" vertex="1">
          <mxGeometry x="335.4098360655737" y="100" width="68.03" height="50" as="geometry" />
        </mxCell>
        <mxCell id="H9Yx70MTVcjUhHsXXlTR-21" value="&lt;font color=&quot;#ffffff&quot;&gt;Multimodal Model&lt;/font&gt;" style="text;html=1;strokeColor=none;fillColor=none;align=center;verticalAlign=middle;whiteSpace=wrap;rounded=0;container=0;" parent="H9Yx70MTVcjUhHsXXlTR-80" vertex="1">
          <mxGeometry x="339.603598219686" y="150" width="62.74955841564597" height="30" as="geometry" />
        </mxCell>
        <mxCell id="H9Yx70MTVcjUhHsXXlTR-23" value="" style="shape=image;verticalLabelPosition=bottom;labelBackgroundColor=default;verticalAlign=top;aspect=fixed;imageAspect=0;image=data:image/png,iVBORw0KGgoAAAANSUhEUgAAAKUAAACmCAMAAACMYb9GAAAAAXNSR0IArs4c6QAAAARnQU1BAACxjwv8YQUAAABjUExURQAAAAAAAAAAAAAAAAAAAAAAAAAAAAAAAAAAAAAAAAAAAAAAAAAAAAAAAAAAAAAAAAAAAAAAAAAAAAAAAAAAAAAAAAAAAAAAAAAAAAAAAAAAAAAAAAAAAAAAAAAAAAAAAAAAAGZodN4AAAAgdFJOUwAIEBggKDA4QEhQWGBocHiAh4+Xn6evt7/Hz9ff5+/3v+H4wgAAAAlwSFlzAAAXEQAAFxEByibzPwAABmdJREFUeF7tnNtiojAQhkFta2tX7cEWT8D7P+X+k0QTMG3JJIO54LtZ0BW+EjLkMKFY7ttYdg+FNAdzqhhOC3MwMcyJ4jiU5mhS4Bxf2ygqHOLbHE0KnOLVbDIp6aZ5NztCxFsW8xMO8s/syJDAsnhscJRnsyNCCsviGUepJeNREstijcOc5mZHgDSWxTuOs5eLR4ksi28caGe205PKUsWjN7OTnBtLxGlWdV1QPEryB3voH3qJD05mOwyKR83S7CSmb/mBD9onsxPGC35ZyzQ8+pbnFs9l5v2l4tHM7CSlZ4kCfzkyi1wXRCURj3qWOM8MsY9X5DoefZrtlPQsUeD0vPswu6HMKB5tzE5CupYo8E1R1u3Z7AezOOOAL2YnHV3Lz7ZFJd21LTuiPFE84t4wP9KxxFXc458Vv8h1PDqnjkcdS9yRdFOVTXvm19QNDnk026noWOoCV0Ue0ailip64zF1LU+DqmvLjyTPuzDpx0HQtSW6paPjneahRfVJ3L1xLFLiFeaKZSFcNx7xYosAdeEVe0oBO+mYmDnqxdALQHKXGKnLUu/bLbCfEsXSDORpGK7MZwhaHkxiOsZaIkrXeAv9YvRiUhkxX0lriFPZeZBU5QkPbPJqdpFjLbihnFPmCal/qGKS5WlKBO1cPRR44kDY74lhrs5OYq2WnwHWRB3UOShoh5DdSfudqGQv1JsSGMVNZUkvoINIzIxJZirQqLWksZVroliSWQr0dSwpLqZ6jJYWlVC/cksCSRlhFRjQsOMObbp9zoXaQzOiQBaeIR2ikzUK1MxapUUsLjeZFcpaMQYa5ub34yFaciYmJiYmJiZ951llB4kSNH6k53FGI6XOgizoWEf03c4RR4IzbavDjBKMGf6PGNtnjCmNZqnFidv9oNEs15n5k9jXHs1TzF9+87seIlhHjsCNa6nk11pj2mJZ6foDTLx7Vkj3XMq5l8YrzMVKyO5aPSzQL1kvJfM83nDB8DtC1pDqoaD7lMj5VPDLbg8FvOpbHiiqiYKK8mpsOTcnuWSq5F4iexEZ/OPP8PkuV8slvwPwF5UwEzld6LWkWUnA0X+WfBFVRvyUCxlZviYCLEDaP7rdEvBAdOqV4FJKS7bXEk+ygNsT4wnkD8jt8lq+nthYeKg/MlelZ7quKJuO/BfP4NWqJyOAnes9S03yIL9JSjc3B4Qj/17V8x4O8ongmuxImdNK/Z6nuy5KqoEyayAWV/ji8E+SzVJm3co9IEDrp77csUAUFL2bwpP8Plp+Sd2b4pP8PlmgFCqUGmcSjsGaC37LEXyuSCkYwJv29ljNcytQJyFc4yxg8lg8rXEmZrDrAWhLSs7zQSDWCectr8KNby+ot+DgDYS5VgtPV8lHPdwtmL6kYxCgm11Ic9hK6US3ZyxHHtOQv7RzRMmKZ7HiWMUuOR7OMWr49lqVaespuZuG3xyoETx013/wKSfJfK4Afh+FZK2m++YuI9RXUfQ+CbRmzvmK+UfPCw/E0js03v/NPOPlxYmJiYmJiIlMSvCltEJU5nwO9JuWG+t3XKqEe8hgMtfSnyZivxBlu6UuTwaeRb0obhqdztTBfdfCPwOLDsfrjg/CPZudmqWcG+oOn2Vl6Z1nys9TLVLsVPUNL9RaI7uxfjpZqJrUzxJCj5W2ajNfySXy52x/0l/XfWD7tKLC27X4tPpP/C5S2V9t41LN81oqKu15QlbZ3vU7YcSxpYrz53CyXq+3BvtbiLnTSZDqWNLS1vbSc7j2uQ2l7l2E613KNe0FwsicQN03GsXzE9r0rt4tKk9FyjiVCvvBLYANRrzpS181azlD57xl8PKhpDWp4WMsVI8dUGpW2h2psLdEUyavACbPO31riA9E3KPDQ6RPWEvHJbOUEvSarcSw/sryWtJKlciyxn999qd4etXAs8XzPro5fumrWkh49mcXLazPTWlJySV5Fbt8e5VhSF1M2nzGMkqKQHo5xLCk21RlpOomkrqXqFF1Tie7dhqMEiksiqWtZLNRg5v5tu93uGt4r/JLRGeLoWOJhTnkLhru2NVUS17U4YeNaFuVqRxe0ruIWKcfSS+LqW+aBSuJyntd5WvYTSbO0vHl7VI6Wlxa6JUPLa2/Hkp+l7TlasrN0euGW3Cz9C3/oM51omwf+RVT4MDc8iaT0JMoLXyLp2mleZMHhJpG0KP4DlnOsz1eTargAAAAASUVORK5CYII=;container=0;" parent="H9Yx70MTVcjUhHsXXlTR-80" vertex="1">
          <mxGeometry x="533.7590163934426" y="90" width="49.7" height="50" as="geometry" />
        </mxCell>
        <mxCell id="H9Yx70MTVcjUhHsXXlTR-26" value="&lt;font color=&quot;#ffffff&quot;&gt;Experimental Process Instructions&lt;/font&gt;" style="text;html=1;strokeColor=none;fillColor=none;align=center;verticalAlign=middle;whiteSpace=wrap;rounded=0;container=0;" parent="H9Yx70MTVcjUhHsXXlTR-80" vertex="1">
          <mxGeometry x="518.360655737705" y="140" width="81.31147540983606" height="50" as="geometry" />
        </mxCell>
        <mxCell id="H9Yx70MTVcjUhHsXXlTR-16" value="" style="rounded=0;whiteSpace=wrap;html=1;container=0;strokeColor=none;fillColor=#F19C99;" parent="H9Yx70MTVcjUhHsXXlTR-80" vertex="1">
          <mxGeometry x="20.327868852459005" y="30" width="203.27868852459017" height="190" as="geometry" />
        </mxCell>
        <mxCell id="H9Yx70MTVcjUhHsXXlTR-18" value="&lt;b&gt;&lt;font color=&quot;#ffffff&quot; face=&quot;Times New Roman&quot;&gt;Experiment Requirements&lt;/font&gt;&lt;/b&gt;" style="text;html=1;strokeColor=none;fillColor=none;align=center;verticalAlign=middle;whiteSpace=wrap;rounded=0;container=0;" parent="H9Yx70MTVcjUhHsXXlTR-80" vertex="1">
          <mxGeometry x="20.33" y="30" width="149.67" height="20" as="geometry" />
        </mxCell>
        <mxCell id="H9Yx70MTVcjUhHsXXlTR-3" value="" style="shape=image;verticalLabelPosition=bottom;labelBackgroundColor=default;verticalAlign=top;aspect=fixed;imageAspect=0;image=data:image/png,iVBORw0KGgoAAAANSUhEUgAAAKYAAAB3CAMAAAC+NMvPAAAAAXNSR0IArs4c6QAAAARnQU1BAACxjwv8YQUAAABjUExURQAAAAAAAAAAAAAAAAAAAAAAAAAAAAAAAAAAAAAAAAAAAAAAAAAAAAAAAAAAAAAAAAAAAAAAAAAAAAAAAAAAAAAAAAAAAAAAAAAAAAAAAAAAAAAAAAAAAAAAAAAAAAAAAAAAAGZodN4AAAAgdFJOUwAIEBggKDA4QEhQWGBocHiAh4+Xn6evt7/Hz9ff5+/3v+H4wgAAAAlwSFlzAAAXEQAAFxEByibzPwAABShJREFUeF7tmutiqygURjWxiU3a1ObqaS7m/Z/y7A+3goBKMgw1M6wfDUGRVe4Qk/zPffKc18kPByfNNeHAxIHmsZg0e9b8SCZNHjU9EjV9EjV98r/SXBxLySdHjjLPN8WWEuyLIl9wXA9+NLuLgoxjB8k2Jd9ec9m98xUbfjRFRi05xw6wOfO9Krd97z/oTZMXBVsKjmquL3SX4HKkP2V5rb/d79s536LhTZMfkFFwRDOvm0h1+MrTJmmaf9XleytmfFuH8Joob1o9FlxuMulyd8OVs63mQ2vOUMv38weVY42a92yHizdL+sCaWV3hK/5KyKRgie1OZQ5pYTXfRLVSlcueQt86eRe4XvCXlmc0s309joOjGO3kAwY1Z+jhpxX+cIypmXxUFLXmLw3PaHbG5QoFQ58OmikSntIELbCtV5m04Z2KvFryF+YZTbpdAVL04aAJPbJMUhp7qjeOlElbllSe125/f1JTG8zlAwY0P+lSKXo4PP5wX5dJJR8U+dOOBeBJTU3KjDFJaaq5cddBP+FuIpMqYCO54bAgnCZKvs0F407d/NTYFjSLq1qcwTTnVNGyf2f07SKmRXveC4r+4jAIpkmFKQYFBs1vj4BM2oEmK/X2UJooTKHVgEkTo6NM2gHFqQzyDpqruleDeiqWt7trovQ6K/Q59yiZtAv9G2cOEuOaYjnQINo1fT6seaIhhoPMO91Z9mtCTI6d45pUWwronvTxqGZKT9GzwP+/6c07pblIdqJxTbqoYJcyYzTWFK30CEE9GcmkGgdR2IyT5qiUGaNBJXfloASTERZ29rzRmtuVfCBNWnQcOaggFm19eeNJzcQfSpPq11hDEvWZf0/e6pMCaVJ/UFbsLZiMevOmEau9EkYztcYSaIB9eVMNtF09jKY9FmAy6smb2vOWg7+uicnIfgWaOw4amosDb3KIk2hOpoJLTJfeSifPrboSUlG7na7ZObSqMG7R5z/W7OtCg1CaxsrQpKCCq5QZo6F2B0dQA+0hnUVzX6+G+vc5LjEa1M4OHHQFT2rXVBZNzuURKTNGgzY3yrLMic4yIJAmxsfOVnEcWnrIpV8gzRlF6ycZw2AhJ+fXQJponHJZ5gJWzXK5H0pzQ/EjPwN0oaXfhYNEKE3Et1OfA9jifXOYCKWp72jHGNkAy1w8a75R8bgPndj/qoUfTFMczjhPmLQR7ZR9OE20tqv1ZwqTL3rK4FGXzMW3ZvJNl9yqHefJl8GDQ5mLd03UZPeApocFlXvVHb1Cas5oneTg+YYTeq0Vh9RMMpoARz1XuElf9QXVTHLsJE+DwyemK/NfCauZLFCht/4V8hxbOMuWPrBmMhcnCD/a7ynMbIvSrixLKYvmJhdgWcoK34/H9JLWB5GHtbH8zAq0yvvFtkKxaCqwgoJrzACr+tf0qmO6KPjn663TD9XtD/ACHDVhFJG4xgzy2eRSleV3UezKEpUNDj3vJ+iaa8WzEiuplUtM+7oBxbRnAP2khZJAcuhdkeqawWhqueFmaa2SX9MkslVRiDeDtsVmpD3/puYDRE2fRE2fRE2fRE2fGJrv4th9EijbUENT/FIzDQaOul5Fc1GfvE8B5dzjVbvQNImaPomaPomaPjE05/UhyxRQDpoMzTinP8p/QPNF2uY0iZo+iZo+iZo+eVXNF9lZxjn9UYY0X+QMaZpETZ9ETZ9ETZ9ETZ80mvxGiR37ey5LvhoCvJ0EzUGUyVXB+h7Ev4j2HorJJDSrZNO8uNLDFDTvu78OuoJJhpFskwAAAABJRU5ErkJggg==;container=0;" parent="H9Yx70MTVcjUhHsXXlTR-80" vertex="1">
          <mxGeometry x="133.08431726772505" y="140.0675675675676" width="68.35" height="49" as="geometry" />
        </mxCell>
        <mxCell id="H9Yx70MTVcjUhHsXXlTR-4" value="&lt;font color=&quot;#ffffff&quot;&gt;Manual&lt;/font&gt;" style="text;html=1;strokeColor=none;fillColor=none;align=center;verticalAlign=middle;whiteSpace=wrap;rounded=0;container=0;" parent="H9Yx70MTVcjUhHsXXlTR-80" vertex="1">
          <mxGeometry x="137.37711129630873" y="189.7297297297298" width="61.61905304187133" height="20.270270270270274" as="geometry" />
        </mxCell>
        <mxCell id="H9Yx70MTVcjUhHsXXlTR-5" value="" style="shape=image;verticalLabelPosition=bottom;labelBackgroundColor=default;verticalAlign=top;aspect=fixed;imageAspect=0;image=data:image/png,iVBORw0KGgoAAAANSUhEUgAAAKYAAAB5CAMAAACEPqq/AAAAAXNSR0IArs4c6QAAAARnQU1BAACxjwv8YQUAAABjUExURQAAAAAAAAAAAAAAAAAAAAAAAAAAAAAAAAAAAAAAAAAAAAAAAAAAAAAAAAAAAAAAAAAAAAAAAAAAAAAAAAAAAAAAAAAAAAAAAAAAAAAAAAAAAAAAAAAAAAAAAAAAAAAAAAAAAGZodN4AAAAgdFJOUwAIEBggKDA4QEhQWGBocHiAh4+Xn6evt7/Hz9ff5+/3v+H4wgAAAAlwSFlzAAAXEQAAFxEByibzPwAAAwVJREFUeF7tm+l24jAMRgOlhKVDoaxl7fs/5VhCHRhiWWnyNQnn6P6yT13nupZlY9Js9PnVeQ7TbC/FTnPKpNBxSHMz7zQr0XzLOs3INYG4JhLXROKaSFwTiWsicU0kronENZG4JpIn18ybvWI4z+W5Cprmhn+7QZby4Dia5pF/t0ne5clREpo7uXFIQIPZS1mD5uWykIrGOTSayqNjJDSNcCGG1P1EKgq9bWizkYrG+BLGMpJKhHqa1+5zqSj0aTV+SEXjLbQ5v0qlSE3Na/cDqSgMKDZmUtGYhzbHF6kUqKt57b4vFYUysZHRpdu+J5VHamtmy1T3ghV6DMXwVsqP1NdMdv+NEXpMj2JYSZ8AzVT3/0iH3pUXiuF4+gRoprq/kQw94VVNnwjNRPc3OH1asTGiGB5L5R6IZpaXWCKcPq3YmIQ256FU7sBoqt3fw+nT6nQW2hyLeRikee3eCD1On7EpvecjtPmU8g2UJp/8LAUay1rKKhQbhdSF0qRZPxl/TZ51azOioeylfAOkyUvUiE1eQwupaPBwfys2OSMZU84ZyZpyThm/tdI5v/+Rigbl950VFtpwEZq8W1qzSbvlwThJ9dXhIjTLzCadPSIx9x89+lo//lSAZpnZHIc21hLj4a6k/EB9zTKzOQwrw8yqdHDdKsOtrVlmNgen0MhaYu+hzV4bbl1NPpdbCfMQHmAtsWloE9nMhZqaZbbp3i60sZYY7Q+Js0s9Td7+rNlchzbWEqP9oeLn9NXIhGZzK2UNOvKcJ1JRGNNwK956NEylOyTKYY1S7UYub/bPWfV+s2O4JhLXROKaSFwTiWsicU2NEoeago1rajyJ5ky+Tk1Q+OzmSwiJayJxTSQtaD5JQvJdCMl6Z1K4ivQlhMQ1kbgmkhY0c7lwL5B4/6cFTTW9JxxcU+NJNJ8kNqvgmkhcE4lrInFNJK6JxDWRuCYS10TimkhcE8m35kI+3TVK5N3XofzoAfrfAtJshcgLm/RKqkJGr/62wY80L9mMXqRugZ9ofi3/Amv+oUmkwyCnAAAAAElFTkSuQmCC;container=0;" parent="H9Yx70MTVcjUhHsXXlTR-80" vertex="1">
          <mxGeometry x="133.08431726772505" y="60" width="67.22" height="49" as="geometry" />
        </mxCell>
        <mxCell id="H9Yx70MTVcjUhHsXXlTR-6" value="&lt;font color=&quot;#ffffff&quot;&gt;Process&lt;/font&gt;" style="text;html=1;strokeColor=none;fillColor=none;align=center;verticalAlign=middle;whiteSpace=wrap;rounded=0;container=0;" parent="H9Yx70MTVcjUhHsXXlTR-80" vertex="1">
          <mxGeometry x="136.791730292411" y="109.66216216216219" width="61.61905304187133" height="20.270270270270274" as="geometry" />
        </mxCell>
        <mxCell id="H9Yx70MTVcjUhHsXXlTR-9" value="" style="shape=image;verticalLabelPosition=bottom;labelBackgroundColor=default;verticalAlign=top;aspect=fixed;imageAspect=0;image=data:image/png,iVBORw0KGgoAAAANSUhEUgAAAKYAAACmCAMAAABnVgRFAAAAAXNSR0IArs4c6QAAAARnQU1BAACxjwv8YQUAAABCUExURQAAAAAAAAAAAAAAAAAAAAAAAAAAAAAAAAAAAAAAAAAAAAAAAAAAAAAAAAAAAAAAAAAAAAAAAAAAAAAAAAAAAAAAAI7h9vIAAAAVdFJOUwAIIDA4QFhgcICHn6evt8fP19/n901SyWsAAAAJcEhZcwAAFxEAABcRAcom8z8AAAGpSURBVHhe7dnZTsMwFEVRM4QWKC3Q8v+/SiL5hWa6lo58D9LeT46UKy9leHIZLj/2fb2Uz7q07lrqwryJ+fFq3XtlHop1A0xhMJXBVAZTGUxlMJXBVAZTGUxlMJXBVAZTGUxlMJXBVAZTGUxlMJXBVAZTGUxlMJXBVAZTGUxlMJXBVAZTGUxlMJXBVAZTGUxlMJXBVAZTGUxlMJXBVAZTGUxlMJXBVAZTGUxlMJXBVAZT2X9i+gdTGUxlMJXBVAZTGUxlMJXB3O9piHZMZJ7HvRuqU717rtsHu9Wx3k3fW0OnOta78G/x+D3eeX6oV72LMnOVUWayMsjMVsaY6coQM18ZYf5VjutDXXZsn3n3LE2Z92/ckzn7Li2Z87/HkTlXOjIXlIbMJaUfc1Fpx1xWujFXlGbMNaUXc1VpxVxXOjE3lEbMLaUPc1Npw9xWujB3lCbMPaUHc1dpwdxXOjADSgNmRJnPDCnTmTFlNjOoTGZGlbnMsDKVGVdmMhuUicwWZSKzRZnIbFFOzLd6ONix6RyyRTkxs2pQlmud6V+Lshxvdap3p7iylF9GSbiHWCtcMQAAAABJRU5ErkJggg==;container=0;" parent="H9Yx70MTVcjUhHsXXlTR-80" vertex="1">
          <mxGeometry x="46.30415090042288" y="59.997567567567614" width="49" height="49" as="geometry" />
        </mxCell>
        <mxCell id="H9Yx70MTVcjUhHsXXlTR-10" value="&lt;font color=&quot;#ffffff&quot;&gt;Name&lt;/font&gt;" style="text;html=1;strokeColor=none;fillColor=none;align=center;verticalAlign=middle;whiteSpace=wrap;rounded=0;container=0;" parent="H9Yx70MTVcjUhHsXXlTR-80" vertex="1">
          <mxGeometry x="40.65573770491801" y="109.6597297297298" width="61.61905304187133" height="20.270270270270274" as="geometry" />
        </mxCell>
        <mxCell id="H9Yx70MTVcjUhHsXXlTR-11" value="" style="shape=image;verticalLabelPosition=bottom;labelBackgroundColor=default;verticalAlign=top;aspect=fixed;imageAspect=0;image=data:image/png,iVBORw0KGgoAAAANSUhEUgAAAKYAAACmCAMAAABnVgRFAAAAAXNSR0IArs4c6QAAAARnQU1BAACxjwv8YQUAAABjUExURQAAAAAAAAAAAAAAAAAAAAAAAAAAAAAAAAAAAAAAAAAAAAAAAAAAAAAAAAAAAAAAAAAAAAAAAAAAAAAAAAAAAAAAAAAAAAAAAAAAAAAAAAAAAAAAAAAAAAAAAAAAAAAAAAAAAGZodN4AAAAgdFJOUwAIEBggKDA4QEhQWGBocHiAh4+Xn6evt7/Hz9ff5+/3v+H4wgAAAAlwSFlzAAAXEQAAFxEByibzPwAACZxJREFUeF7NXedi8jAMJOxSRhiFlP3+T/mdbIUynFi2ZfjuR0soJIe1zrJDO1rojxdlWW4rxg4H5XjAf/wfMPout7/XBux35WzML/wchvPthQm1oSpH/Ib3YzD7OTENxi+svSVr/5Dd+UnGZTcf8hvfiO7szs7nal2OHSTgr6vqyC8CDos+/+U9mPzwhTGCyy9+shGjxe7mGdW04GdzY7CubQ2K0ouOy9oJLpt3hNRwy5f7nXX5KSGK7/qt1YSfyoUxX+lYRnlZb3aw79/nJDq2hksy22BlXeYw5Se0MbQkz8sePxGJYs5EvbEXge7KnPtcBnqkCzXRbeIHfsXUnPg0VyBpMDXp9LJQTU9Dk8svpeZJ52c650ExOy3phNedst7p2RqxUTJQzwzlKUMKGZv0dFCp9V/GOEstp3xAsaAqepnxYQKMwXU+sAsDY6qfxEGwBk89SxsKk+jSxmFIBtewSRuMV10SXH9MJ8hn8BrWZNHFc0L+ndPgN5TEc8EHgZjSe1d8kBnx11rQO0s+yA5juU14lTN2yCW2HDCBtAvlSSwv33zwFpis8sMHQpCvnHPowRYMSDSt+UCECY3lm1livkzjGRANX+TPuadVDhi7i4uJefUbo+cPZnyEERE69pow3ibqNxVUupZ88HbMcPGjpPCRYgnMC5og4bjlxy2gYT+0ZNnucpNXi9A0e86PG0GOeWmb9NBgr3LKkR7msD73NI7ZGuSmp3D2ftwEjHEBj3vSWG34sRvcWMvSsmBQoW51zyERaC//oEkJS38+fAcairbqsvc4JoBTbMZ4HV6ZZ7YJkHuemkeLkpYvYxJNvNKM6CnXLOkbJ28UyZ4PYWFp1p2vfabO7w7Gasp7a1zXKziYJnQXTgX8qHfVCAMU919+/ASKH3/+v9GEUDC9Fd0GWA2KdndipPjxt6rvaGK+ZF00g8ovoJGdDkhVUjAHfaDZ6ZGjwD76i2hEx1VEMJje+AEeacJV8ASwVnfRrZNPE/tnPNPEO00j+azb+LWh8koIcSsZTAfNTlGS6L4elaclLvO6uTvgoAkXtY1f3frpsq/bExxw0ux0RqZdpSvxXoeTBlM2/WmgWa91aEo8Gs7Hcoy8cpHFaiNN6HrjooprExjOh1JUIE0L+2HNNCH97YrmVmvVnHov9+5OikSYodtoQnljAPQkXhfmuXdFZKMDP/ShnWa9KqUk8ZBAjvwQ6OHE0l6tj2Yt8VTq5xdO9HeeOY6kxc5LU1XiIXv89ejgUBU/9EJAU1HiLZHi6pMMcEpxZ0tEs1OwxEutn5TP6zksbH4Rf24ZzZvEqxJbJDBLnSmR7cQ2F9NUkniIx719RLld3ieU00Q6ZonHhzGggmk/JzVD5AUuhGYt8RJaJF283cYNZkdy1wyjqSDxkIXs9XBhuWuG0kyWeHBOU4iKp8LpQTDNTmdmXTSufpJzkpQJc80YmrXEi2qR1M5JjSP7jAgxNJMkHpyT+lowvlQdEeJowmi2fi6D6ydikHox0AmClvwNsTRvEi+0RYKyTsN4FAt3g3iakRKPJDsCHT9DYjCBZpzEG+ENA6NBQiIwiSYkXvDeOAr1yV3RlCGRZi3xAlokyLpz2itx5mMRUmmGSzxUsTUF0t2syI90mpB4tn6uZfVzQ4uT+NHQPXZDg+ZN4olaJGBY2R8B0KEZIvFg7yo0u2vRDJB4EJqH4Muq0URGlLVIEORHG0cBUKRZSzxPi2SKV1CtDNowoUrzJvHakhM1vD5Ms5Z4pxbDkyCmHB8089OmycLJR/PDo8ltnLYEaiQSoi1oQ6IqTZFiMiEUellFmkL9aRISLhu0nUePJmcjb5MN6X3/qWIZ0P7GmH+qpofMNMFwd+sqSKFBswhamsEn2pDlT3wsggLNEBUHmCtSVpLJU4tkmsE9JThxaSZuITPSRJoRHTo4yNxM3EJm+Ek0w+drdmUA4whHCdmtmUJzYma/gRsEaOoLB4GrhOT3eJqRvXieU2I6yk14EWJpdnnzSvDKBvIRzYJQMi/2CREiaUb2uQA4Cjll3Y4VIopmwqqb7c3Y3+I1tiiaSWuYttMFIH0GXDiYZhcxAMRu+qMlQPMgrKqH0hRNHluAcmC7MuSc8vgLo5m8W+FvnYWcU77fJYQmy7Vdwt4PWvjnMcQnlvdn5DTTVwIBZNvaI6Hl5C1OMc1AudYAnKRuygQtYAlpKu3yonRUUytAWexvIpo9TAyA1DV/a+hbTUBKEq8BC2jGyLUGoHr96SJazZBWWz/NKLnmRh8nuquQIL3jhz74aLJc09nATWa+82669VN43naamnulbNDcp8qAbV2tNOPlmhO0jevhA0PDCLVxC031ffCoO4+sqK7LArORJss1tV2RTlIvxJvQQDNlA0IToAieNxLTHgXRcLpppso1F1y7simoRMPpomnlmvYtbk/ZyIKiSjKcrzR7LNeitxq50YMXvfaxpcP5TFNFrrlAssARjsLhfKKpsA3ODfJM17oaDadgh/4DTZZr+veNmNRzdp6WVrP8ixp3NJW2aDpBmadBUWNoGm8gu+FGU1GuvaJLkdJgWnIH7xaAmqaVa3nuEDPJ6LZZ9wX0R18DxNIc4BegI9deQQPWPIukoW5b5CQQTV255gAu0nZbHTXiPXNhnOFg5VpA4ykQmAG1t4bJlu1TVmtttdsuXKCZbvudyP6bwy1NRbn2AsPBU3npk7TeHE4rEbluqTXw3yJPIL9o68UPjqfERoYHFJ5/da4RZNV80eEFSXbPLfIGxjXU9Y4U3u9uuIHcU/YVIProksAW2pLK/jmHnvDCsBQ4pgWF0TFjymmCYRnw1U2k0I6Z6nUzQlmaued1n6/OOGES5m+Q4iqoN/Beu5tLhg6NMcDpjXEUxRI8Kc2f35aX+jQsMW5WkH++K8+PUFNig8E00FX7LU2Y0lz/NzZkzWpjxFflhcJMBhKuQy2G60G56/KMruk4JsmuCc0nLlkFU5+at6lfrdc3fY2chi9AM91g/KWoGfX68LKLDZ57GMNfN/lKvNIQWMNH3tn3TtiFlHztAy3UXyz9AREaBntn33X7EVUfAPvF0iD6v5u+v7JEs//Hg1T0mOhp/Z/bvluaoEfCn4cnUo0sLkW3NH1ioFoEuGl/ts395dzPGK15SK+XnYRqf7IyeUK6tUAP3zaREi7VqvkfHg0nZVV/JsfaXn50n/5vz978g6bZ2OILj6vKBhxjN/9UcRjMt7ehasVxM8k/CWjFaLH+M6sDx205/oCxnSjG03JXVfd8T/Rvur5UGHY6/wBfWELXcPSscwAAAABJRU5ErkJggg==;container=0;" parent="H9Yx70MTVcjUhHsXXlTR-80" vertex="1">
          <mxGeometry x="46.30415090042288" y="140.07" width="49" height="49" as="geometry" />
        </mxCell>
        <mxCell id="H9Yx70MTVcjUhHsXXlTR-12" value="&lt;font color=&quot;#ffffff&quot;&gt;Video&lt;/font&gt;" style="text;html=1;strokeColor=none;fillColor=none;align=center;verticalAlign=middle;whiteSpace=wrap;rounded=0;container=0;" parent="H9Yx70MTVcjUhHsXXlTR-80" vertex="1">
          <mxGeometry x="40.65573770491801" y="189.73216216216213" width="61.61905304187133" height="20.270270270270274" as="geometry" />
        </mxCell>
        <mxCell id="MdJp3viLKCxwOYi2GNXu-51" value="" style="group" vertex="1" connectable="0" parent="1">
          <mxGeometry x="680" y="20" width="440" height="780" as="geometry" />
        </mxCell>
        <mxCell id="MdJp3viLKCxwOYi2GNXu-1" value="&lt;font color=&quot;#ffffff&quot;&gt;开始&lt;/font&gt;" style="rounded=1;whiteSpace=wrap;html=1;fontSize=14;fontStyle=0;labelBorderColor=none;strokeColor=none;fillColor=#FFCC99;" vertex="1" parent="MdJp3viLKCxwOYi2GNXu-51">
          <mxGeometry x="160" width="120" height="40" as="geometry" />
        </mxCell>
        <mxCell id="MdJp3viLKCxwOYi2GNXu-2" value="实验相关信息&lt;br style=&quot;font-size: 14px;&quot;&gt;多模态输入" style="rounded=0;whiteSpace=wrap;html=1;fontSize=14;fontStyle=0;strokeColor=none;fillColor=#F19C99;fontColor=#FFFFFF;" vertex="1" parent="MdJp3viLKCxwOYi2GNXu-51">
          <mxGeometry x="160" y="70" width="120" height="60" as="geometry" />
        </mxCell>
        <mxCell id="MdJp3viLKCxwOYi2GNXu-13" value="" style="edgeStyle=orthogonalEdgeStyle;orthogonalLoop=1;jettySize=auto;html=1;endArrow=classicThin;endFill=1;rounded=0;strokeColor=#000000;strokeWidth=1;" edge="1" parent="MdJp3viLKCxwOYi2GNXu-51" source="MdJp3viLKCxwOYi2GNXu-1" target="MdJp3viLKCxwOYi2GNXu-2">
          <mxGeometry relative="1" as="geometry" />
        </mxCell>
        <mxCell id="MdJp3viLKCxwOYi2GNXu-3" value="多模态模型处理" style="rounded=0;whiteSpace=wrap;html=1;fontSize=14;fontStyle=0;strokeColor=none;fillColor=#F19C99;fontColor=#FFFFFF;" vertex="1" parent="MdJp3viLKCxwOYi2GNXu-51">
          <mxGeometry x="160" y="160" width="120" height="60" as="geometry" />
        </mxCell>
        <mxCell id="MdJp3viLKCxwOYi2GNXu-14" value="" style="edgeStyle=orthogonalEdgeStyle;orthogonalLoop=1;jettySize=auto;html=1;endArrow=classicThin;endFill=1;rounded=0;strokeColor=#000000;strokeWidth=1;" edge="1" parent="MdJp3viLKCxwOYi2GNXu-51" source="MdJp3viLKCxwOYi2GNXu-2" target="MdJp3viLKCxwOYi2GNXu-3">
          <mxGeometry relative="1" as="geometry" />
        </mxCell>
        <mxCell id="MdJp3viLKCxwOYi2GNXu-4" value="输出实验操作流程" style="rounded=0;whiteSpace=wrap;html=1;fontSize=14;fontStyle=0;strokeColor=none;fillColor=#F19C99;fontColor=#FFFFFF;" vertex="1" parent="MdJp3viLKCxwOYi2GNXu-51">
          <mxGeometry x="160" y="250" width="120" height="60" as="geometry" />
        </mxCell>
        <mxCell id="MdJp3viLKCxwOYi2GNXu-15" value="" style="edgeStyle=orthogonalEdgeStyle;orthogonalLoop=1;jettySize=auto;html=1;endArrow=classicThin;endFill=1;rounded=0;strokeColor=#000000;strokeWidth=1;" edge="1" parent="MdJp3viLKCxwOYi2GNXu-51" source="MdJp3viLKCxwOYi2GNXu-3" target="MdJp3viLKCxwOYi2GNXu-4">
          <mxGeometry relative="1" as="geometry" />
        </mxCell>
        <mxCell id="MdJp3viLKCxwOYi2GNXu-5" value="接入仿真平台" style="rounded=0;whiteSpace=wrap;html=1;fontSize=14;fontStyle=0;strokeColor=none;fillColor=#E6D0DE;fontColor=#FFFFFF;" vertex="1" parent="MdJp3viLKCxwOYi2GNXu-51">
          <mxGeometry y="350" width="120" height="60" as="geometry" />
        </mxCell>
        <mxCell id="MdJp3viLKCxwOYi2GNXu-6" value="搭建仿真环境" style="rounded=0;whiteSpace=wrap;html=1;fontSize=14;fontStyle=0;strokeColor=none;fillColor=#E6D0DE;fontColor=#FFFFFF;" vertex="1" parent="MdJp3viLKCxwOYi2GNXu-51">
          <mxGeometry y="440" width="120" height="60" as="geometry" />
        </mxCell>
        <mxCell id="MdJp3viLKCxwOYi2GNXu-8" value="接入机器人" style="rounded=0;whiteSpace=wrap;html=1;fontSize=14;fontStyle=0;strokeColor=none;fillColor=#CCCCFF;fontColor=#FFFFFF;" vertex="1" parent="MdJp3viLKCxwOYi2GNXu-51">
          <mxGeometry x="320" y="350" width="120" height="60" as="geometry" />
        </mxCell>
        <mxCell id="MdJp3viLKCxwOYi2GNXu-18" value="" style="edgeStyle=orthogonalEdgeStyle;orthogonalLoop=1;jettySize=auto;html=1;endArrow=classicThin;endFill=1;rounded=0;strokeColor=#000000;strokeWidth=1;" edge="1" parent="MdJp3viLKCxwOYi2GNXu-51" source="MdJp3viLKCxwOYi2GNXu-5" target="MdJp3viLKCxwOYi2GNXu-6">
          <mxGeometry relative="1" as="geometry" />
        </mxCell>
        <mxCell id="MdJp3viLKCxwOYi2GNXu-9" value="视觉感知" style="rounded=0;whiteSpace=wrap;html=1;fontSize=14;fontStyle=0;strokeColor=none;fillColor=#CCCCFF;fontColor=#FFFFFF;" vertex="1" parent="MdJp3viLKCxwOYi2GNXu-51">
          <mxGeometry x="60" y="640" width="120" height="60" as="geometry" />
        </mxCell>
        <mxCell id="MdJp3viLKCxwOYi2GNXu-10" value="运动控制" style="rounded=0;whiteSpace=wrap;html=1;fontSize=14;fontStyle=0;strokeColor=none;fillColor=#CCCCFF;fontColor=#FFFFFF;" vertex="1" parent="MdJp3viLKCxwOYi2GNXu-51">
          <mxGeometry x="260" y="640" width="120" height="60" as="geometry" />
        </mxCell>
        <mxCell id="MdJp3viLKCxwOYi2GNXu-12" value="&lt;font color=&quot;#ffffff&quot;&gt;结束&lt;/font&gt;" style="rounded=1;whiteSpace=wrap;html=1;fontSize=14;fontStyle=0;strokeColor=none;fillColor=#FFCC99;" vertex="1" parent="MdJp3viLKCxwOYi2GNXu-51">
          <mxGeometry x="160" y="740" width="120" height="40" as="geometry" />
        </mxCell>
        <mxCell id="MdJp3viLKCxwOYi2GNXu-22" value="" style="endArrow=classicThin;startArrow=classicThin;html=1;entryX=0;entryY=0.5;entryDx=0;entryDy=0;exitX=1;exitY=0.5;exitDx=0;exitDy=0;fontColor=#000000;labelBorderColor=#000000;endFill=1;rounded=0;strokeColor=#B266FF;strokeWidth=2;startFill=1;dashed=1;" edge="1" parent="MdJp3viLKCxwOYi2GNXu-51" source="MdJp3viLKCxwOYi2GNXu-9" target="MdJp3viLKCxwOYi2GNXu-10">
          <mxGeometry width="50" height="50" relative="1" as="geometry">
            <mxPoint x="170" y="790" as="sourcePoint" />
            <mxPoint x="220" y="740" as="targetPoint" />
          </mxGeometry>
        </mxCell>
        <mxCell id="MdJp3viLKCxwOYi2GNXu-25" value="" style="endArrow=classicThin;html=1;entryX=0.5;entryY=0;entryDx=0;entryDy=0;endFill=1;rounded=0;strokeColor=#000000;strokeWidth=1;" edge="1" parent="MdJp3viLKCxwOYi2GNXu-51" target="MdJp3viLKCxwOYi2GNXu-5">
          <mxGeometry width="50" height="50" relative="1" as="geometry">
            <mxPoint x="220" y="310" as="sourcePoint" />
            <mxPoint x="59.99999999999977" y="340" as="targetPoint" />
            <Array as="points">
              <mxPoint x="220" y="330" />
              <mxPoint x="60" y="330" />
            </Array>
          </mxGeometry>
        </mxCell>
        <mxCell id="MdJp3viLKCxwOYi2GNXu-26" value="" style="endArrow=classicThin;html=1;exitX=0.5;exitY=1;exitDx=0;exitDy=0;entryX=0.5;entryY=0;entryDx=0;entryDy=0;endFill=1;rounded=0;strokeColor=#000000;strokeWidth=1;" edge="1" parent="MdJp3viLKCxwOYi2GNXu-51" source="MdJp3viLKCxwOYi2GNXu-4" target="MdJp3viLKCxwOYi2GNXu-8">
          <mxGeometry width="50" height="50" relative="1" as="geometry">
            <mxPoint x="350" y="310" as="sourcePoint" />
            <mxPoint x="400" y="260" as="targetPoint" />
            <Array as="points">
              <mxPoint x="220" y="330" />
              <mxPoint x="380" y="330" />
            </Array>
          </mxGeometry>
        </mxCell>
        <mxCell id="MdJp3viLKCxwOYi2GNXu-31" value="LLM-机器人模型" style="rounded=0;whiteSpace=wrap;html=1;fontSize=14;fontStyle=0;strokeColor=none;fillColor=#CCCCFF;fontColor=#FFFFFF;" vertex="1" parent="MdJp3viLKCxwOYi2GNXu-51">
          <mxGeometry x="160" y="540" width="120" height="60" as="geometry" />
        </mxCell>
        <mxCell id="MdJp3viLKCxwOYi2GNXu-41" value="布置工作环境" style="rounded=0;whiteSpace=wrap;html=1;fontSize=14;fontStyle=0;strokeColor=none;fillColor=#CCCCFF;fontColor=#FFFFFF;" vertex="1" parent="MdJp3viLKCxwOYi2GNXu-51">
          <mxGeometry x="320" y="440" width="120" height="60" as="geometry" />
        </mxCell>
        <mxCell id="MdJp3viLKCxwOYi2GNXu-43" value="" style="endArrow=classicThin;html=1;rounded=0;exitX=0.5;exitY=1;exitDx=0;exitDy=0;entryX=0.5;entryY=0;entryDx=0;entryDy=0;endFill=1;" edge="1" parent="MdJp3viLKCxwOYi2GNXu-51" source="MdJp3viLKCxwOYi2GNXu-6" target="MdJp3viLKCxwOYi2GNXu-31">
          <mxGeometry width="50" height="50" relative="1" as="geometry">
            <mxPoint x="190" y="540" as="sourcePoint" />
            <mxPoint x="240" y="490" as="targetPoint" />
            <Array as="points">
              <mxPoint x="60" y="520" />
              <mxPoint x="220" y="520" />
            </Array>
          </mxGeometry>
        </mxCell>
        <mxCell id="MdJp3viLKCxwOYi2GNXu-44" value="" style="endArrow=classicThin;html=1;rounded=0;exitX=0.5;exitY=1;exitDx=0;exitDy=0;entryX=0.5;entryY=0;entryDx=0;entryDy=0;endFill=1;" edge="1" parent="MdJp3viLKCxwOYi2GNXu-51" source="MdJp3viLKCxwOYi2GNXu-41" target="MdJp3viLKCxwOYi2GNXu-31">
          <mxGeometry width="50" height="50" relative="1" as="geometry">
            <mxPoint x="450" y="650" as="sourcePoint" />
            <mxPoint x="500" y="600" as="targetPoint" />
            <Array as="points">
              <mxPoint x="380" y="520" />
              <mxPoint x="220" y="520" />
            </Array>
          </mxGeometry>
        </mxCell>
        <mxCell id="MdJp3viLKCxwOYi2GNXu-45" value="" style="endArrow=classicThin;html=1;rounded=0;exitX=0.5;exitY=1;exitDx=0;exitDy=0;entryX=0.5;entryY=0;entryDx=0;entryDy=0;endFill=1;" edge="1" parent="MdJp3viLKCxwOYi2GNXu-51" source="MdJp3viLKCxwOYi2GNXu-31" target="MdJp3viLKCxwOYi2GNXu-9">
          <mxGeometry width="50" height="50" relative="1" as="geometry">
            <mxPoint x="-70" y="690" as="sourcePoint" />
            <mxPoint x="-20" y="640" as="targetPoint" />
            <Array as="points">
              <mxPoint x="220" y="620" />
              <mxPoint x="120" y="620" />
            </Array>
          </mxGeometry>
        </mxCell>
        <mxCell id="MdJp3viLKCxwOYi2GNXu-46" value="" style="endArrow=classicThin;html=1;rounded=0;entryX=0.5;entryY=0;entryDx=0;entryDy=0;exitX=0.5;exitY=1;exitDx=0;exitDy=0;endFill=1;" edge="1" parent="MdJp3viLKCxwOYi2GNXu-51" source="MdJp3viLKCxwOYi2GNXu-31" target="MdJp3viLKCxwOYi2GNXu-10">
          <mxGeometry width="50" height="50" relative="1" as="geometry">
            <mxPoint x="220" y="640" as="sourcePoint" />
            <mxPoint x="470" y="610" as="targetPoint" />
            <Array as="points">
              <mxPoint x="220" y="620" />
              <mxPoint x="320" y="620" />
            </Array>
          </mxGeometry>
        </mxCell>
        <mxCell id="MdJp3viLKCxwOYi2GNXu-47" value="" style="endArrow=classicThin;html=1;rounded=0;entryX=0.5;entryY=0;entryDx=0;entryDy=0;exitX=0.5;exitY=1;exitDx=0;exitDy=0;endFill=1;" edge="1" parent="MdJp3viLKCxwOYi2GNXu-51" source="MdJp3viLKCxwOYi2GNXu-9" target="MdJp3viLKCxwOYi2GNXu-12">
          <mxGeometry width="50" height="50" relative="1" as="geometry">
            <mxPoint x="120" y="760" as="sourcePoint" />
            <mxPoint x="200" y="810" as="targetPoint" />
            <Array as="points">
              <mxPoint x="120" y="720" />
              <mxPoint x="220" y="720" />
            </Array>
          </mxGeometry>
        </mxCell>
        <mxCell id="MdJp3viLKCxwOYi2GNXu-42" value="" style="edgeStyle=orthogonalEdgeStyle;rounded=0;orthogonalLoop=1;jettySize=auto;html=1;endArrow=classicThin;endFill=1;" edge="1" parent="MdJp3viLKCxwOYi2GNXu-51" source="MdJp3viLKCxwOYi2GNXu-8" target="MdJp3viLKCxwOYi2GNXu-41">
          <mxGeometry relative="1" as="geometry" />
        </mxCell>
        <mxCell id="MdJp3viLKCxwOYi2GNXu-48" value="" style="endArrow=classicThin;html=1;rounded=0;exitX=0.5;exitY=1;exitDx=0;exitDy=0;entryX=0.5;entryY=0;entryDx=0;entryDy=0;endFill=1;" edge="1" parent="MdJp3viLKCxwOYi2GNXu-51" source="MdJp3viLKCxwOYi2GNXu-10" target="MdJp3viLKCxwOYi2GNXu-12">
          <mxGeometry width="50" height="50" relative="1" as="geometry">
            <mxPoint x="450" y="870" as="sourcePoint" />
            <mxPoint x="500" y="820" as="targetPoint" />
            <Array as="points">
              <mxPoint x="320" y="720" />
              <mxPoint x="220" y="720" />
            </Array>
          </mxGeometry>
        </mxCell>
      </root>
    </mxGraphModel>
  </diagram>
</mxfile>
